<svg width="22" height="22" viewBox="0 0 22 22" fill="none" xmlns="http://www.w3.org/2000/svg">
<path d="M17.7913 12.5417C17.5151 12.5417 17.2501 12.6514 17.0548 12.8468C16.8594 13.0421 16.7497 13.3071 16.7497 13.5833V13.9792L15.208 12.4375C14.6637 11.8975 13.9279 11.5944 13.1611 11.5944C12.3943 11.5944 11.6586 11.8975 11.1143 12.4375L10.3851 13.1667L7.80176 10.5833C7.2498 10.0579 6.51693 9.76489 5.75488 9.76489C4.99284 9.76489 4.25997 10.0579 3.70801 10.5833L2.16634 12.125V6.29168C2.16634 6.01541 2.27609 5.75046 2.47144 5.55511C2.66679 5.35976 2.93174 5.25001 3.20801 5.25001H10.4997C10.7759 5.25001 11.0409 5.14027 11.2362 4.94492C11.4316 4.74957 11.5413 4.48461 11.5413 4.20835C11.5413 3.93208 11.4316 3.66713 11.2362 3.47178C11.0409 3.27643 10.7759 3.16668 10.4997 3.16668H3.20801C2.37921 3.16668 1.58435 3.49592 0.998299 4.08197C0.412248 4.66802 0.0830078 5.46288 0.0830078 6.29168V18.7917C0.0830078 19.6205 0.412248 20.4153 0.998299 21.0014C1.58435 21.5874 2.37921 21.9167 3.20801 21.9167H15.708C16.5368 21.9167 17.3317 21.5874 17.9177 21.0014C18.5038 20.4153 18.833 19.6205 18.833 18.7917V13.5833C18.833 13.3071 18.7233 13.0421 18.5279 12.8468C18.3326 12.6514 18.0676 12.5417 17.7913 12.5417ZM3.20801 19.8333C2.93174 19.8333 2.66679 19.7236 2.47144 19.5283C2.27609 19.3329 2.16634 19.0679 2.16634 18.7917V15.0729L5.18717 12.0521C5.34021 11.9063 5.54349 11.8249 5.75488 11.8249C5.96627 11.8249 6.16956 11.9063 6.32259 12.0521L9.62467 15.3542L14.1038 19.8333H3.20801ZM16.7497 18.7917C16.7482 18.9911 16.6824 19.1847 16.5622 19.3438L11.8643 14.625L12.5934 13.8958C12.6681 13.8196 12.7572 13.7591 12.8556 13.7177C12.954 13.6764 13.0596 13.6551 13.1663 13.6551C13.2731 13.6551 13.3787 13.6764 13.4771 13.7177C13.5754 13.7591 13.6646 13.8196 13.7393 13.8958L16.7497 16.9271V18.7917ZM21.6559 3.46876L18.5309 0.343764C18.4319 0.24893 18.315 0.174592 18.1872 0.125014C17.9336 0.0208286 17.6491 0.0208286 17.3955 0.125014C17.2676 0.174592 17.1508 0.24893 17.0518 0.343764L13.9268 3.46876C13.7306 3.66491 13.6204 3.93095 13.6204 4.20835C13.6204 4.48574 13.7306 4.75178 13.9268 4.94793C14.1229 5.14408 14.3889 5.25428 14.6663 5.25428C14.9437 5.25428 15.2098 5.14408 15.4059 4.94793L16.7497 3.59376V9.41668C16.7497 9.69295 16.8594 9.9579 17.0548 10.1532C17.2501 10.3486 17.5151 10.4583 17.7913 10.4583C18.0676 10.4583 18.3326 10.3486 18.5279 10.1532C18.7233 9.9579 18.833 9.69295 18.833 9.41668V3.59376L20.1768 4.94793C20.2736 5.04556 20.3888 5.12306 20.5157 5.17594C20.6427 5.22883 20.7788 5.25605 20.9163 5.25605C21.0539 5.25605 21.19 5.22883 21.3169 5.17594C21.4439 5.12306 21.5591 5.04556 21.6559 4.94793C21.7536 4.85109 21.8311 4.73588 21.8839 4.60895C21.9368 4.48201 21.9641 4.34586 21.9641 4.20835C21.9641 4.07083 21.9368 3.93468 21.8839 3.80775C21.8311 3.68081 21.7536 3.5656 21.6559 3.46876Z" fill="#21B888"/>
</svg>
