<svg width="41" height="24" viewBox="0 0 41 24" fill="none" xmlns="http://www.w3.org/2000/svg">
<g opacity="0.32">
<path d="M21.25 8H13.25C12.9848 8 12.7304 7.89464 12.5429 7.70711C12.3554 7.51957 12.25 7.26522 12.25 7C12.25 6.73478 12.3554 6.48043 12.5429 6.29289C12.7304 6.10536 12.9848 6 13.25 6H21.25C21.5152 6 21.7696 6.10536 21.9571 6.29289C22.1446 6.48043 22.25 6.73478 22.25 7C22.25 7.26522 22.1446 7.51957 21.9571 7.70711C21.7696 7.89464 21.5152 8 21.25 8ZM21.25 12H13.25C12.9848 12 12.7304 11.8946 12.5429 11.7071C12.3554 11.5196 12.25 11.2652 12.25 11C12.25 10.7348 12.3554 10.4804 12.5429 10.2929C12.7304 10.1054 12.9848 10 13.25 10H21.25C21.5152 10 21.7696 10.1054 21.9571 10.2929C22.1446 10.4804 22.25 10.7348 22.25 11C22.25 11.2652 22.1446 11.5196 21.9571 11.7071C21.7696 11.8946 21.5152 12 21.25 12Z" fill="#637381"/>
<path d="M21.25 16H3.25C2.98478 16 2.73043 15.8946 2.54289 15.7071C2.35536 15.5196 2.25 15.2652 2.25 15C2.25 14.7348 2.35536 14.4804 2.54289 14.2929C2.73043 14.1054 2.98478 14 3.25 14H21.25C21.5152 14 21.7696 14.1054 21.9571 14.2929C22.1446 14.4804 22.25 14.7348 22.25 15C22.25 15.2652 22.1446 15.5196 21.9571 15.7071C21.7696 15.8946 21.5152 16 21.25 16ZM13.25 20H3.25C2.98478 20 2.73043 19.8946 2.54289 19.7071C2.35536 19.5196 2.25 19.2652 2.25 19C2.25 18.7348 2.35536 18.4804 2.54289 18.2929C2.73043 18.1054 2.98478 18 3.25 18H13.25C13.5152 18 13.7696 18.1054 13.9571 18.2929C14.1446 18.4804 14.25 18.7348 14.25 19C14.25 19.2652 14.1446 19.5196 13.9571 19.7071C13.7696 19.8946 13.5152 20 13.25 20Z" fill="#637381"/>
</g>
<rect x="2.25" y="4" width="8" height="8" rx="2" fill="#637381"/>
</svg>
