<svg width="41" height="24" viewBox="0 0 41 24" fill="none" xmlns="http://www.w3.org/2000/svg">
<g opacity="0.32">
<path d="M10.4167 2.83333C10.4167 1.78189 11.0896 1.00805 12.141 1.00039C12.1766 1.00013 12.2129 1 12.25 1C12.2871 1 12.3234 1.00013 12.359 1.00039C13.4104 1.00805 14.0833 1.78189 14.0833 2.83333C14.0833 3.88481 13.4104 4.6586 12.359 4.6663C12.3234 4.66654 12.2871 4.66667 12.25 4.66667C12.2129 4.66667 12.1766 4.66654 12.141 4.6663C11.0896 4.6586 10.4167 3.88475 10.4167 2.83333Z" fill="#919EAB"/>
<path d="M10.4167 21.1667C10.4167 22.2181 11.0896 22.9919 12.141 22.9996C12.1766 22.9999 12.2129 23 12.25 23C12.2871 23 12.3234 22.9999 12.359 22.9996C13.4104 22.9919 14.0833 22.2181 14.0833 21.1667C14.0833 20.1152 13.4104 19.3414 12.359 19.3337C12.3234 19.3335 12.2871 19.3333 12.25 19.3333C12.2129 19.3333 12.1766 19.3335 12.141 19.3337C11.0896 19.3414 10.4167 20.1152 10.4167 21.1667Z" fill="#919EAB"/>
<path d="M17.4355 4.22184C18.1789 3.47836 19.2019 3.40695 19.9508 4.14502C19.9762 4.17002 20.0019 4.19562 20.0282 4.22184C20.0544 4.24806 20.08 4.27384 20.105 4.29921C20.843 5.04806 20.7716 6.07106 20.0282 6.81454C19.2847 7.55802 18.2617 7.62939 17.5128 6.89136C17.4875 6.86636 17.4617 6.84076 17.4355 6.81454C17.4092 6.78832 17.3836 6.76253 17.3586 6.73717C16.6206 5.98832 16.692 4.96532 17.4355 4.22184Z" fill="#919EAB"/>
<path d="M4.47184 17.1855C3.72836 17.9289 3.65696 18.9519 4.39502 19.7008C4.42002 19.7262 4.44562 19.7519 4.47184 19.7782C4.49806 19.8044 4.52384 19.83 4.54921 19.855C5.29806 20.593 6.32106 20.5216 7.06454 19.7782C7.80802 19.0347 7.87939 18.0117 7.14136 17.2628C7.11636 17.2375 7.09076 17.2117 7.06454 17.1855C7.03832 17.1592 7.01253 17.1336 6.98717 17.1086C6.23832 16.3706 5.21532 16.442 4.47184 17.1855Z" fill="#919EAB"/>
<path d="M3.08333 13.8333C2.03189 13.8333 1.25805 13.1604 1.25039 12.109C1.25013 12.0734 1.25 12.0371 1.25 12C1.25 11.9629 1.25013 11.9266 1.25039 11.891C1.25805 10.8396 2.03189 10.1667 3.08333 10.1667C4.13475 10.1667 4.9086 10.8396 4.9163 11.891C4.91654 11.9266 4.91667 11.9629 4.91667 12C4.91667 12.0371 4.91654 12.0734 4.9163 12.109C4.9086 13.1604 4.13475 13.8333 3.08333 13.8333Z" fill="#919EAB"/>
<path d="M21.4167 13.8333C22.4681 13.8333 23.2419 13.1604 23.2496 12.109C23.2499 12.0734 23.25 12.0371 23.25 12C23.25 11.9629 23.2499 11.9266 23.2496 11.891C23.2419 10.8396 22.4681 10.1667 21.4167 10.1667C20.3652 10.1667 19.5914 10.8396 19.5837 11.891C19.5835 11.9266 19.5833 11.9629 19.5833 12C19.5833 12.0371 19.5835 12.0734 19.5837 12.109C19.5914 13.1604 20.3652 13.8333 21.4167 13.8333Z" fill="#919EAB"/>
<path d="M4.47184 6.81454C3.72836 6.07106 3.65695 5.04806 4.39502 4.29921C4.42002 4.27384 4.44562 4.24806 4.47184 4.22184C4.49806 4.19562 4.52384 4.17002 4.54921 4.14502C5.29806 3.40695 6.32106 3.47836 7.06454 4.22184C7.80802 4.96532 7.87939 5.98832 7.14136 6.73717C7.11636 6.76253 7.09076 6.78832 7.06454 6.81454C7.03832 6.84076 7.01253 6.86636 6.98717 6.89136C6.23832 7.62939 5.21532 7.55802 4.47184 6.81454Z" fill="#919EAB"/>
<path d="M17.4355 19.7782C18.1789 20.5216 19.2019 20.593 19.9508 19.855C19.9762 19.83 20.0019 19.8044 20.0282 19.7782C20.0544 19.7519 20.08 19.7262 20.105 19.7008C20.843 18.9519 20.7716 17.9289 20.0282 17.1855C19.2847 16.442 18.2617 16.3706 17.5128 17.1086C17.4875 17.1336 17.4617 17.1592 17.4355 17.1855C17.4092 17.2117 17.3836 17.2375 17.3586 17.2628C16.6206 18.0117 16.692 19.0347 17.4355 19.7782Z" fill="#919EAB"/>
</g>
<path d="M12.2499 18.1109C15.6249 18.1109 18.361 15.3749 18.361 11.9998C18.361 8.62471 15.6249 5.88867 12.2499 5.88867C8.8748 5.88867 6.13876 8.62471 6.13876 11.9998C6.13876 15.3749 8.8748 18.1109 12.2499 18.1109Z" fill="#919EAB"/>
</svg>
