<svg width="41" height="24" viewBox="0 0 41 24" fill="none" xmlns="http://www.w3.org/2000/svg">
<path opacity="0.32" d="M8.5 6.75C6.8455 6.75 5.5 8.0955 5.5 9.75C5.5 11.4045 6.8455 12.75 8.5 12.75C10.1545 12.75 11.5 11.4045 11.5 9.75C11.5 8.0955 10.1545 6.75 8.5 6.75ZM7.375 11.901V7.599L10.6023 9.75L7.375 11.901ZM20.5 1.5H4C2.3455 1.5 1 2.8455 1 4.5V15C1 16.6545 2.3455 18 4 18H20.5C22.1545 18 23.5 16.6545 23.5 15V4.5C23.5 2.8455 22.1545 1.5 20.5 1.5ZM8.5 14.25C6.01825 14.25 4 12.2318 4 9.75C4 7.26825 6.01825 5.25 8.5 5.25C10.9818 5.25 13 7.26825 13 9.75C13 12.2318 10.9818 14.25 8.5 14.25ZM20.5 13.5H14.5V12H20.5V13.5ZM20.5 10.5H14.5V9H20.5V10.5ZM20.5 7.5H14.5V6H20.5V7.5Z" fill="#919EAB"/>
<path d="M14.5 21V19.5H10V21H7V22.5H17.5V21H14.5Z" fill="#919EAB"/>
<path d="M8.5 6.75C6.8455 6.75 5.5 8.0955 5.5 9.75C5.5 11.4045 6.8455 12.75 8.5 12.75C10.1545 12.75 11.5 11.4045 11.5 9.75C11.5 8.0955 10.1545 6.75 8.5 6.75ZM7.375 11.901V7.599L10.6023 9.75L7.375 11.901ZM8.5 14.25C6.01825 14.25 4 12.2318 4 9.75C4 7.26825 6.01825 5.25 8.5 5.25C10.9818 5.25 13 7.26825 13 9.75C13 12.2318 10.9818 14.25 8.5 14.25ZM20.5 13.5H14.5V12H20.5V13.5ZM20.5 10.5H14.5V9H20.5V10.5ZM20.5 7.5H14.5V6H20.5V7.5Z" fill="#919EAB"/>
</svg>
