<svg width="138" height="150" viewBox="0 0 138 150" fill="none" xmlns="http://www.w3.org/2000/svg">
<g clip-path="url(#clip0_1429_3251)">
<path d="M50 59.375V115.625C50 116.536 49.707 117.285 49.1211 117.871C48.5352 118.457 47.7865 118.75 46.875 118.75H40.625C39.7135 118.75 38.9648 118.457 38.3789 117.871C37.793 117.285 37.5 116.536 37.5 115.625V59.375C37.5 58.4635 37.793 57.7148 38.3789 57.1289C38.9648 56.543 39.7135 56.25 40.625 56.25H46.875C47.7865 56.25 48.5352 56.543 49.1211 57.1289C49.707 57.7148 50 58.4635 50 59.375ZM75 59.375V115.625C75 116.536 74.707 117.285 74.1211 117.871C73.5352 118.457 72.7865 118.75 71.875 118.75H65.625C64.7135 118.75 63.9648 118.457 63.3789 117.871C62.793 117.285 62.5 116.536 62.5 115.625V59.375C62.5 58.4635 62.793 57.7148 63.3789 57.1289C63.9648 56.543 64.7135 56.25 65.625 56.25H71.875C72.7865 56.25 73.5352 56.543 74.1211 57.1289C74.707 57.7148 75 58.4635 75 59.375ZM100 59.375V115.625C100 116.536 99.707 117.285 99.1211 117.871C98.5352 118.457 97.7865 118.75 96.875 118.75H90.625C89.7135 118.75 88.9648 118.457 88.3789 117.871C87.793 117.285 87.5 116.536 87.5 115.625V59.375C87.5 58.4635 87.793 57.7148 88.3789 57.1289C88.9648 56.543 89.7135 56.25 90.625 56.25H96.875C97.7865 56.25 98.5352 56.543 99.1211 57.1289C99.707 57.7148 100 58.4635 100 59.375ZM112.5 130.078V37.5H25V130.078C25 131.51 25.2279 132.829 25.6836 134.033C26.1393 135.238 26.6113 136.117 27.0996 136.67C27.5879 137.223 27.9297 137.5 28.125 137.5H109.375C109.57 137.5 109.912 137.223 110.4 136.67C110.889 136.117 111.361 135.238 111.816 134.033C112.272 132.829 112.5 131.51 112.5 130.078ZM46.875 25H90.625L85.9375 13.5742C85.4818 12.9883 84.9284 12.6302 84.2773 12.5H53.3203C52.6693 12.6302 52.1159 12.9883 51.6602 13.5742L46.875 25ZM137.5 28.125V34.375C137.5 35.2865 137.207 36.0352 136.621 36.6211C136.035 37.207 135.286 37.5 134.375 37.5H125V130.078C125 135.482 123.47 140.153 120.41 144.092C117.35 148.031 113.672 150 109.375 150H28.125C23.8281 150 20.1497 148.096 17.0898 144.287C14.0299 140.479 12.5 135.872 12.5 130.469V37.5H3.125C2.21354 37.5 1.46484 37.207 0.878906 36.6211C0.292969 36.0352 0 35.2865 0 34.375V28.125C0 27.2135 0.292969 26.4648 0.878906 25.8789C1.46484 25.293 2.21354 25 3.125 25H33.3008L40.1367 8.69141C41.1133 6.28255 42.8711 4.23177 45.4102 2.53906C47.9492 0.846354 50.5208 0 53.125 0H84.375C86.9792 0 89.5508 0.846354 92.0898 2.53906C94.6289 4.23177 96.3867 6.28255 97.3633 8.69141L104.199 25H134.375C135.286 25 136.035 25.293 136.621 25.8789C137.207 26.4648 137.5 27.2135 137.5 28.125Z" fill="#FF4343"/>
</g>
<defs>
<clipPath id="clip0_1429_3251">
<rect width="137.5" height="150" fill="white"/>
</clipPath>
</defs>
</svg>
