<svg width="21" height="21" viewBox="0 0 21 21" fill="none" xmlns="http://www.w3.org/2000/svg">
<path d="M11.1627 0.774175C10.9869 0.598612 10.7486 0.5 10.5002 0.5C10.2517 0.5 10.0134 0.598612 9.83765 0.774175L7.02515 3.58668C6.85955 3.76439 6.7694 3.99945 6.77368 4.24233C6.77797 4.48521 6.87636 4.71694 7.04812 4.8887C7.21989 5.06047 7.45162 5.15886 7.6945 5.16314C7.93738 5.16743 8.17243 5.07728 8.35015 4.91168L9.56265 3.69918V7.06168C9.56265 7.31032 9.66142 7.54877 9.83724 7.72459C10.0131 7.9004 10.2515 7.99918 10.5002 7.99918C10.7488 7.99918 10.9872 7.9004 11.1631 7.72459C11.3389 7.54877 11.4377 7.31032 11.4377 7.06168V3.69918L12.6502 4.91168C12.736 5.00378 12.8395 5.07766 12.9545 5.1289C13.0695 5.18014 13.1936 5.20769 13.3195 5.20991C13.4454 5.21214 13.5704 5.18898 13.6872 5.14183C13.8039 5.09468 13.9099 5.0245 13.999 4.93547C14.088 4.84645 14.1582 4.74041 14.2053 4.62367C14.2525 4.50694 14.2756 4.3819 14.2734 4.25602C14.2712 4.13014 14.2436 4.006 14.1924 3.891C14.1411 3.776 14.0673 3.6725 13.9752 3.58668L11.1627 0.774175ZM0.775152 9.83668C0.599589 10.0125 0.500977 10.2507 0.500977 10.4992C0.500977 10.7476 0.599589 10.9859 0.775152 11.1617L3.58765 13.9742C3.76537 14.1398 4.00043 14.2299 4.24331 14.2256C4.48618 14.2214 4.71791 14.123 4.88968 13.9512C5.06145 13.7794 5.15984 13.5477 5.16412 13.3048C5.16841 13.062 5.07825 12.8269 4.91265 12.6492L3.70015 11.4367H7.06265C7.31129 11.4367 7.54975 11.3379 7.72556 11.1621C7.90138 10.9863 8.00015 10.7478 8.00015 10.4992C8.00015 10.2505 7.90138 10.0121 7.72556 9.83626C7.54975 9.66045 7.31129 9.56168 7.06265 9.56168H3.70015L4.91265 8.34918C5.07825 8.17146 5.16841 7.9364 5.16412 7.69352C5.15984 7.45065 5.06145 7.21891 4.88968 7.04715C4.71791 6.87538 4.48618 6.77699 4.24331 6.77271C4.00043 6.76842 3.76537 6.85858 3.58765 7.02418L0.775152 9.83668ZM11.1627 20.2242L13.9752 17.4117C14.0673 17.3258 14.1411 17.2223 14.1924 17.1073C14.2436 16.9923 14.2712 16.8682 14.2734 16.7423C14.2756 16.6165 14.2525 16.4914 14.2053 16.3747C14.1582 16.2579 14.088 16.1519 13.999 16.0629C13.9099 15.9739 13.8039 15.9037 13.6872 15.8565C13.5704 15.8094 13.4454 15.7862 13.3195 15.7884C13.1936 15.7907 13.0695 15.8182 12.9545 15.8695C12.8395 15.9207 12.736 15.9946 12.6502 16.0867L11.4377 17.2992V13.9367C11.4377 13.688 11.3389 13.4496 11.1631 13.2738C10.9872 13.0979 10.7488 12.9992 10.5002 12.9992C10.2515 12.9992 10.0131 13.0979 9.83724 13.2738C9.66142 13.4496 9.56265 13.688 9.56265 13.9367V17.2992L8.35015 16.0867C8.17243 15.9211 7.93738 15.8309 7.6945 15.8352C7.45162 15.8395 7.21989 15.9379 7.04812 16.1096C6.87636 16.2814 6.77797 16.5131 6.77368 16.756C6.7694 16.9989 6.85955 17.234 7.02515 17.4117L9.83765 20.2242C10.0134 20.3997 10.2517 20.4984 10.5002 20.4984C10.7486 20.4984 10.9869 20.3997 11.1627 20.2242ZM17.4127 7.02418L20.2252 9.83668C20.4007 10.0125 20.4993 10.2507 20.4993 10.4992C20.4993 10.7476 20.4007 10.9859 20.2252 11.1617L17.4127 13.9742C17.3268 14.0663 17.2233 14.1402 17.1083 14.1914C16.9933 14.2426 16.8692 14.2702 16.7433 14.2724C16.6174 14.2746 16.4924 14.2515 16.3757 14.2043C16.2589 14.1572 16.1529 14.087 16.0639 13.998C15.9748 13.9089 15.9047 13.8029 15.8575 13.6862C15.8103 13.5694 15.7872 13.4444 15.7894 13.3185C15.7916 13.1926 15.8192 13.0685 15.8704 12.9535C15.9217 12.8385 15.9955 12.735 16.0877 12.6492L17.3002 11.4367H13.9377C13.689 11.4367 13.4506 11.3379 13.2747 11.1621C13.0989 10.9863 13.0002 10.7478 13.0002 10.4992C13.0002 10.2505 13.0989 10.0121 13.2747 9.83626C13.4506 9.66045 13.689 9.56168 13.9377 9.56168H17.3002L16.0877 8.34918C15.9221 8.17146 15.8319 7.9364 15.8362 7.69352C15.8405 7.45065 15.9389 7.21891 16.1106 7.04715C16.2824 6.87538 16.5141 6.77699 16.757 6.77271C16.9999 6.76842 17.2349 6.85858 17.4127 7.02418Z" fill="#21B888"/>
</svg>
