<svg width="21" height="21" viewBox="0 0 21 21" fill="none" xmlns="http://www.w3.org/2000/svg">
<path d="M12.1086 8.89254C11.2554 8.03966 10.0984 7.56055 8.89198 7.56055C7.68557 7.56055 6.52855 8.03966 5.67531 8.89254L2.4576 12.1092C1.60435 12.9625 1.125 14.1197 1.125 15.3264C1.125 16.5331 1.60435 17.6903 2.4576 18.5436C3.31085 19.3968 4.46811 19.8762 5.67479 19.8762C6.88147 19.8762 8.03873 19.3968 8.89198 18.5436L10.5003 16.9353" stroke="#21B888" stroke-width="2" stroke-linecap="round" stroke-linejoin="round"/>
<path d="M8.8916 12.1086C9.74484 12.9615 10.9019 13.4406 12.1083 13.4406C13.3147 13.4406 14.4717 12.9615 15.3249 12.1086L18.5426 8.89198C19.3959 8.03873 19.8752 6.88147 19.8752 5.67479C19.8752 4.46811 19.3959 3.31085 18.5426 2.4576C17.6894 1.60435 16.5321 1.125 15.3255 1.125C14.1188 1.125 12.9615 1.60435 12.1083 2.4576L10.4999 4.06594" stroke="#21B888" stroke-width="2" stroke-linecap="round" stroke-linejoin="round"/>
</svg>
